<?xml version="1.0" standalone="no"?>
<!DOCTYPE svg PUBLIC "-//W3C//DTD SVG 20010904//EN"
 "http://www.w3.org/TR/2001/REC-SVG-20010904/DTD/svg10.dtd">
<svg version="1.0" xmlns="http://www.w3.org/2000/svg"
 width="452.000000pt" height="452.000000pt" viewBox="0 0 452.000000 452.000000"
 preserveAspectRatio="xMidYMid meet">
<metadata>
Created by potrace 1.11, written by Peter Selinger 2001-2013
</metadata>
<g transform="translate(0.000000,452.000000) scale(0.100000,-0.100000)"
fill="#000000" stroke="none">
<path d="M655 4507 c-130 -53 -208 -161 -229 -316 -7 -54 -8 -55 -54 -57 -146
-5 -235 -68 -256 -184 -10 -57 -9 -309 1 -323 6 -6 36 -75 67 -152 32 -77 64
-153 71 -170 7 -16 163 -390 345 -830 183 -440 348 -837 367 -881 l34 -82 74
32 c64 27 74 34 68 51 -5 19 -759 1835 -788 1900 -7 17 -30 70 -50 119 l-37
89 6 116 c2 64 5 117 5 118 4 14 68 30 114 29 l59 -1 151 -156 c143 -147 538
-554 732 -754 143 -148 496 -512 616 -635 102 -105 355 -366 774 -798 88 -91
194 -199 235 -242 41 -42 185 -191 320 -330 135 -140 339 -347 454 -461 l209
-206 -12 -49 c-26 -104 -84 -164 -159 -164 -41 0 -152 35 -221 70 -31 16 -400
181 -821 368 -421 187 -790 351 -820 365 -630 284 -745 332 -800 331 -68 0
-127 -26 -211 -91 -35 -27 -103 -80 -151 -117 l-88 -67 39 -52 c51 -69 73
-135 77 -235 5 -132 -35 -214 -131 -265 -65 -35 -113 -46 -189 -43 -84 2 -145
28 -205 87 -63 60 -84 111 -84 199 -1 125 42 232 107 271 l34 20 -35 72 c-19
40 -37 74 -39 76 -2 2 -21 -7 -41 -21 -130 -86 -194 -231 -189 -423 4 -145 28
-205 126 -308 84 -90 192 -138 319 -142 262 -8 461 148 489 385 5 41 8 84 7
95 -2 11 -6 47 -10 80 -4 33 -16 84 -27 113 -11 30 -16 57 -12 62 57 50 171
130 193 135 23 5 94 -23 347 -135 176 -78 338 -150 362 -161 23 -10 61 -28 85
-38 23 -11 348 -156 722 -322 374 -166 703 -312 730 -324 314 -143 335 -149
440 -149 90 1 160 30 215 91 49 53 96 147 105 211 l6 47 52 2 c76 4 154 47
189 103 31 51 39 98 41 266 l2 109 -56 135 c-31 74 -93 227 -139 340 -45 113
-88 219 -95 235 -11 26 -246 607 -498 1230 -44 110 -82 202 -83 204 -8 10
-149 -59 -147 -71 2 -7 102 -258 224 -558 121 -300 289 -716 374 -925 156
-388 168 -418 191 -470 66 -156 67 -159 62 -281 -6 -142 -9 -146 -107 -149
l-71 -2 -167 176 c-187 196 -282 295 -373 391 -34 36 -125 132 -203 214 -78
81 -155 162 -171 180 -17 17 -102 107 -190 200 -89 93 -181 190 -206 216 -25
26 -121 128 -215 226 -188 197 -307 323 -379 399 -26 28 -114 119 -194 204
-81 84 -167 174 -191 200 -24 25 -112 118 -195 205 -186 196 -177 186 -371
391 -88 93 -257 268 -375 388 l-215 219 1 47 c1 31 10 61 29 92 64 105 140
108 348 10 56 -26 118 -55 137 -63 19 -9 71 -33 115 -53 44 -20 312 -143 595
-272 283 -129 553 -252 598 -274 46 -21 86 -39 87 -39 2 0 56 -25 120 -55 65
-30 118 -55 120 -55 2 0 47 -21 102 -46 54 -25 192 -89 308 -141 207 -94 210
-95 271 -90 76 7 101 21 286 159 l147 110 -34 45 c-46 60 -76 143 -82 228 -12
155 54 259 192 303 106 34 178 31 258 -9 56 -29 124 -104 146 -163 18 -49 18
-60 9 -204 -3 -37 -66 -139 -100 -161 l-36 -23 25 -62 c36 -85 44 -92 79 -72
74 39 146 136 180 241 14 46 19 89 19 181 0 119 0 121 -37 195 -46 93 -118
166 -206 212 -82 42 -108 49 -197 53 -94 3 -166 -11 -251 -51 -80 -36 -169
-117 -198 -180 -62 -130 -62 -335 -2 -477 6 -12 -11 -30 -71 -75 -90 -69 -114
-83 -142 -83 -11 0 -98 35 -193 79 -95 43 -200 91 -233 106 -33 15 -89 41
-125 57 -36 17 -139 64 -230 105 -91 41 -217 99 -280 128 -63 29 -245 112
-405 185 -159 73 -323 148 -363 166 -41 19 -75 34 -77 34 -1 0 -52 23 -111 51
-60 27 -118 54 -129 59 -11 5 -83 39 -160 76 -77 36 -165 75 -195 86 -68 24
-213 33 -255 15z"/>
</g>
</svg>
